<svg xmlns="http://www.w3.org/2000/svg" viewBox="0 0 1843.76 380.94">
    <path fill="#0C3DDE"
        d="M171.77 44.72c-43.31 0-78.54 35.23-78.54 78.54v85.57c0 21.22 8.26 41.17 23.27 56.17l2 2a75.384 75.384 0 0 0 16.61 12.53l34.36-34.36c-7.29-.53-14.44-3.57-20-9.13l-2-2c-6.73-6.73-10.44-15.68-10.44-25.21v-85.57c0-19.16 15.59-34.75 34.75-34.75s34.75 15.59 34.75 34.75v3.43c10.53 4.44 20.2 10.9 28.52 19.23l15.27 15.27v-37.92c0-43.31-35.23-78.54-78.54-78.54Z" />
    <path fill="#ff9203"
        d="M52.74 217.16c-14.83 14.83-23 34.56-23 55.54s8.17 40.7 23 55.54c15.31 15.31 35.42 22.97 55.54 22.97s40.23-7.66 55.54-22.97l63.23-63.23a79.626 79.626 0 0 0 14.44-19.74l-35.01-35c-.35 8.98-4.01 17.38-10.4 23.77l-63.23 63.23c-13.55 13.55-35.6 13.55-49.15 0-6.56-6.56-10.18-15.29-10.18-24.57s3.61-18.01 10.18-24.57l5.2-5.2c-4.35-10.68-6.63-22.2-6.63-34.08v-21.22l-29.53 29.53Z" />
    <path fill="#e71d73"
        d="M196.34 184.63c-6.56-6.56-15.29-10.18-24.57-10.18s-17.34 3.35-23.8 9.45v-49.57c7.6-2.41 15.6-3.67 23.8-3.67 20.98 0 40.7 8.17 55.53 23l64.38 64.38c14.83 14.83 23 34.56 23 55.54s-8.17 40.7-23 55.54c-15.31 15.31-35.43 22.97-55.54 22.97s-40.23-7.66-55.54-22.97l-1.1-1.1 30.97-30.97 1.1 1.1c13.55 13.55 35.6 13.55 49.14 0 6.56-6.56 10.18-15.29 10.18-24.57s-3.61-18.01-10.18-24.57l-64.38-64.38Z" />
    <path fill="#fff"
        d="M911.06 213.29c35.64 0 63.7 28.06 63.7 63.7 0 33.41-30.74 63.7-63.7 63.7H853.6c-10.58 0-19.15-8.58-19.15-19.15 0-10.58 8.58-19.15 19.15-19.15h53.79c14.03 0 25.8-11.48 25.49-25.5-.3-13.55-11.32-24.39-24.94-24.39h-23.62c-33.43 0-61.56-27.35-61.46-60.78.1-33.76 27.24-60.38 60.58-60.38h45.44c10.58 0 19.15 8.58 19.15 19.15 0 10.58-8.58 19.15-19.15 19.15h-42.22c-11.81 0-21.89 9.16-22.35 20.97-.48 12.42 9.5 22.69 21.81 22.69h24.95ZM575.12 163.49v-11.4c0-11.6-9.4-21-21-21s-21 9.4-21 21v11.4c0 28.88-23.5 52.38-52.38 52.38h-.85c-.17 0-.34.02-.51.03a93.146 93.146 0 0 0-49.69 15.57V59.55c0-11.6-9.4-21-21-21s-21 9.4-21 21v262.1c0 11.6 9.4 21 21 21s21-9.4 21-21v-12.07c0-28.51 23.2-51.71 51.71-51.71s51.71 23.2 51.71 51.71v12.07c0 11.6 9.4 21 21 21s21-9.4 21-21v-12.07c0-29.41-13.62-55.69-34.88-72.89 21.27-17.32 34.88-43.7 34.88-73.21ZM694.8 342.66c-52.97 0-96.06-42.86-96.06-95.54v-95.03c0-11.6 9.4-21 21-21s21 9.4 21 21v95.03c0 29.52 24.25 53.54 54.06 53.54s54.06-24.02 54.06-53.54v-95.03c0-11.6 9.4-21 21-21s21 9.4 21 21v95.03c0 52.68-43.09 95.54-96.06 95.54ZM1246.93 342.66c-11.6 0-21-9.4-21-21v-86.59c0-57.34 46.65-103.98 103.98-103.98h14.2c11.6 0 21 9.4 21 21s-9.4 21-21 21h-14.2c-34.18 0-61.98 27.81-61.98 61.98v86.59c0 11.6-9.4 21-21 21ZM1404.27 342.66c-11.6 0-21-9.4-21-21V152.09c0-11.6 9.4-21 21-21s21 9.4 21 21v169.57c0 11.6-9.4 21-21 21ZM1106.46 342.7c-.24 0-.34 0-.58-.01-.2 0-1.61-.03-9.79-.03-58.48 0-106.06-47.58-106.06-106.06s47.58-106.06 106.06-106.06 106.06 47.58 106.06 106.06l.18 42.58v42.48c0 11.6-9.4 21-21 21s-21-9.4-21-21v-42.39l-.18-42.58c0-35.41-28.74-64.15-64.06-64.15s-64.06 28.74-64.06 64.06 28.74 64.06 64.06 64.06c7.58 0 9.7.02 10.52.04l1.82-.04c11.6-.19 21.16 9.04 21.36 20.63.2 11.6-9.04 21.16-20.63 21.36l-1.8.03c-.46 0-.72.01-.9.01Zm.42-42h.04-.04ZM1558.13 342.7c-11.6 0-21-9.4-21-21V152.13c0-11.6 9.4-21 21-21s21 9.4 21 21V321.7c0 11.6-9.4 21-21 21Z" />
    <circle cx="1485.62" cy="321.7" r="21" fill="#fff" />
    <path fill="#fff"
        d="M1707.96 342.7c-58.48 0-106.06-47.58-106.06-106.06s47.58-106.06 106.06-106.06 106.06 47.58 106.06 106.06-47.58 106.06-106.06 106.06Zm0-170.12c-35.32 0-64.06 28.74-64.06 64.06s28.74 64.06 64.06 64.06 64.06-28.74 64.06-64.06-28.74-64.06-64.06-64.06Z" />
</svg>